<?xml version="1.0" encoding="UTF-8" standalone="no"?><svg xmlns="http://www.w3.org/2000/svg" xmlns:xlink="http://www.w3.org/1999/xlink" contentScriptType="application/ecmascript" contentStyleType="text/css" height="1802px" preserveAspectRatio="none" style="width:1725px;height:1802px;" version="1.1" viewBox="0 0 1725 1802" width="1725px" zoomAndPan="magnify"><defs><filter height="300%" id="f8ml5zodhexu2" width="300%" x="-1" y="-1"><feGaussianBlur result="blurOut" stdDeviation="2.0"/><feColorMatrix in="blurOut" result="blurOut2" type="matrix" values="0 0 0 0 0 0 0 0 0 0 0 0 0 0 0 0 0 0 .4 0"/><feOffset dx="4.0" dy="4.0" in="blurOut2" result="blurOut3"/><feBlend in="SourceGraphic" in2="blurOut3" mode="normal"/></filter></defs><g><text fill="#000000" font-family="sans-serif" font-size="18" lengthAdjust="spacingAndGlyphs" textLength="384" x="667" y="26.708">TSG Flooring Corp - editOrder() Sequence</text><line style="stroke: #A80036; stroke-width: 1.0; stroke-dasharray: 5.0,5.0;" x1="34" x2="34" y1="73.25" y2="1754.2891"/><line style="stroke: #A80036; stroke-width: 1.0; stroke-dasharray: 5.0,5.0;" x1="327.5" x2="327.5" y1="73.25" y2="1754.2891"/><line style="stroke: #A80036; stroke-width: 1.0; stroke-dasharray: 5.0,5.0;" x1="674.5" x2="674.5" y1="73.25" y2="1754.2891"/><line style="stroke: #A80036; stroke-width: 1.0; stroke-dasharray: 5.0,5.0;" x1="1440.5" x2="1440.5" y1="73.25" y2="1754.2891"/><line style="stroke: #A80036; stroke-width: 1.0; stroke-dasharray: 5.0,5.0;" x1="1555" x2="1555" y1="73.25" y2="1754.2891"/><line style="stroke: #A80036; stroke-width: 1.0; stroke-dasharray: 5.0,5.0;" x1="1659" x2="1659" y1="73.25" y2="1754.2891"/><rect fill="#FEFECE" filter="url(#f8ml5zodhexu2)" height="30.2969" style="stroke: #A80036; stroke-width: 1.5;" width="48" x="8" y="37.9531"/><text fill="#000000" font-family="sans-serif" font-size="14" lengthAdjust="spacingAndGlyphs" textLength="34" x="15" y="57.9482">View</text><rect fill="#FEFECE" filter="url(#f8ml5zodhexu2)" height="30.2969" style="stroke: #A80036; stroke-width: 1.5;" width="48" x="8" y="1753.2891"/><text fill="#000000" font-family="sans-serif" font-size="14" lengthAdjust="spacingAndGlyphs" textLength="34" x="15" y="1773.2842">View</text><rect fill="#FEFECE" filter="url(#f8ml5zodhexu2)" height="30.2969" style="stroke: #A80036; stroke-width: 1.5;" width="87" x="282.5" y="37.9531"/><text fill="#000000" font-family="sans-serif" font-size="14" lengthAdjust="spacingAndGlyphs" textLength="73" x="289.5" y="57.9482">Controller</text><rect fill="#FEFECE" filter="url(#f8ml5zodhexu2)" height="30.2969" style="stroke: #A80036; stroke-width: 1.5;" width="87" x="282.5" y="1753.2891"/><text fill="#000000" font-family="sans-serif" font-size="14" lengthAdjust="spacingAndGlyphs" textLength="73" x="289.5" y="1773.2842">Controller</text><rect fill="#FEFECE" filter="url(#f8ml5zodhexu2)" height="30.2969" style="stroke: #A80036; stroke-width: 1.5;" width="67" x="639.5" y="37.9531"/><text fill="#000000" font-family="sans-serif" font-size="14" lengthAdjust="spacingAndGlyphs" textLength="53" x="646.5" y="57.9482">Service</text><rect fill="#FEFECE" filter="url(#f8ml5zodhexu2)" height="30.2969" style="stroke: #A80036; stroke-width: 1.5;" width="67" x="639.5" y="1753.2891"/><text fill="#000000" font-family="sans-serif" font-size="14" lengthAdjust="spacingAndGlyphs" textLength="53" x="646.5" y="1773.2842">Service</text><rect fill="#FEFECE" filter="url(#f8ml5zodhexu2)" height="30.2969" style="stroke: #A80036; stroke-width: 1.5;" width="83" x="1397.5" y="37.9531"/><text fill="#000000" font-family="sans-serif" font-size="14" lengthAdjust="spacingAndGlyphs" textLength="69" x="1404.5" y="57.9482">OrderDao</text><rect fill="#FEFECE" filter="url(#f8ml5zodhexu2)" height="30.2969" style="stroke: #A80036; stroke-width: 1.5;" width="83" x="1397.5" y="1753.2891"/><text fill="#000000" font-family="sans-serif" font-size="14" lengthAdjust="spacingAndGlyphs" textLength="69" x="1404.5" y="1773.2842">OrderDao</text><rect fill="#FEFECE" filter="url(#f8ml5zodhexu2)" height="30.2969" style="stroke: #A80036; stroke-width: 1.5;" width="82" x="1512" y="37.9531"/><text fill="#000000" font-family="sans-serif" font-size="14" lengthAdjust="spacingAndGlyphs" textLength="68" x="1519" y="57.9482">StateDao</text><rect fill="#FEFECE" filter="url(#f8ml5zodhexu2)" height="30.2969" style="stroke: #A80036; stroke-width: 1.5;" width="82" x="1512" y="1753.2891"/><text fill="#000000" font-family="sans-serif" font-size="14" lengthAdjust="spacingAndGlyphs" textLength="68" x="1519" y="1773.2842">StateDao</text><rect fill="#FEFECE" filter="url(#f8ml5zodhexu2)" height="30.2969" style="stroke: #A80036; stroke-width: 1.5;" width="98" x="1608" y="37.9531"/><text fill="#000000" font-family="sans-serif" font-size="14" lengthAdjust="spacingAndGlyphs" textLength="84" x="1615" y="57.9482">ProductDao</text><rect fill="#FEFECE" filter="url(#f8ml5zodhexu2)" height="30.2969" style="stroke: #A80036; stroke-width: 1.5;" width="98" x="1608" y="1753.2891"/><text fill="#000000" font-family="sans-serif" font-size="14" lengthAdjust="spacingAndGlyphs" textLength="84" x="1615" y="1773.2842">ProductDao</text><polygon fill="#A80036" points="45,100.3828,35,104.3828,45,108.3828,41,104.3828" style="stroke: #A80036; stroke-width: 1.0;"/><line style="stroke: #A80036; stroke-width: 1.0; stroke-dasharray: 2.0,2.0;" x1="39" x2="327" y1="104.3828" y2="104.3828"/><text fill="#000000" font-family="sans-serif" font-size="13" lengthAdjust="spacingAndGlyphs" textLength="160" x="51" y="99.3169">displayEditOrderBanner()</text><polygon fill="#A80036" points="316,129.5156,326,133.5156,316,137.5156,320,133.5156" style="stroke: #A80036; stroke-width: 1.0;"/><line style="stroke: #A80036; stroke-width: 1.0; stroke-dasharray: 2.0,2.0;" x1="34" x2="322" y1="133.5156" y2="133.5156"/><text fill="#000000" font-family="sans-serif" font-size="13" lengthAdjust="spacingAndGlyphs" textLength="27" x="41" y="128.4497">void</text><polygon fill="#A80036" points="45,158.6484,35,162.6484,45,166.6484,41,162.6484" style="stroke: #A80036; stroke-width: 1.0;"/><line style="stroke: #A80036; stroke-width: 1.0;" x1="39" x2="327" y1="162.6484" y2="162.6484"/><text fill="#000000" font-family="sans-serif" font-size="13" lengthAdjust="spacingAndGlyphs" textLength="136" x="51" y="157.5825">getSingleOrderDate()</text><polygon fill="#A80036" points="316,187.7813,326,191.7813,316,195.7813,320,191.7813" style="stroke: #A80036; stroke-width: 1.0;"/><line style="stroke: #A80036; stroke-width: 1.0; stroke-dasharray: 2.0,2.0;" x1="34" x2="322" y1="191.7813" y2="191.7813"/><text fill="#000000" font-family="sans-serif" font-size="13" lengthAdjust="spacingAndGlyphs" textLength="64" x="41" y="186.7153">LocalDate</text><polygon fill="#A80036" points="45,216.9141,35,220.9141,45,224.9141,41,220.9141" style="stroke: #A80036; stroke-width: 1.0;"/><line style="stroke: #A80036; stroke-width: 1.0;" x1="39" x2="327" y1="220.9141" y2="220.9141"/><text fill="#000000" font-family="sans-serif" font-size="13" lengthAdjust="spacingAndGlyphs" textLength="97" x="51" y="215.8481">getOrderNum()</text><polygon fill="#A80036" points="316,246.0469,326,250.0469,316,254.0469,320,250.0469" style="stroke: #A80036; stroke-width: 1.0;"/><line style="stroke: #A80036; stroke-width: 1.0; stroke-dasharray: 2.0,2.0;" x1="34" x2="322" y1="250.0469" y2="250.0469"/><text fill="#000000" font-family="sans-serif" font-size="13" lengthAdjust="spacingAndGlyphs" textLength="16" x="41" y="244.981">int</text><polygon fill="#A80036" points="663,275.1797,673,279.1797,663,283.1797,667,279.1797" style="stroke: #A80036; stroke-width: 1.0;"/><line style="stroke: #A80036; stroke-width: 1.0;" x1="328" x2="669" y1="279.1797" y2="279.1797"/><text fill="#000000" font-family="sans-serif" font-size="13" lengthAdjust="spacingAndGlyphs" textLength="155" x="335" y="274.1138">getOrder(LocalDate, int)</text><polygon fill="#A80036" points="1429,304.3125,1439,308.3125,1429,312.3125,1433,308.3125" style="stroke: #A80036; stroke-width: 1.0;"/><line style="stroke: #A80036; stroke-width: 1.0;" x1="675" x2="1435" y1="308.3125" y2="308.3125"/><text fill="#000000" font-family="sans-serif" font-size="13" lengthAdjust="spacingAndGlyphs" textLength="155" x="682" y="303.2466">getOrder(LocalDate, int)</text><polygon fill="#A80036" points="686,333.4453,676,337.4453,686,341.4453,682,337.4453" style="stroke: #A80036; stroke-width: 1.0;"/><line style="stroke: #A80036; stroke-width: 1.0; stroke-dasharray: 2.0,2.0;" x1="680" x2="1440" y1="337.4453" y2="337.4453"/><text fill="#000000" font-family="sans-serif" font-size="13" lengthAdjust="spacingAndGlyphs" textLength="36" x="692" y="332.3794">Order</text><polygon fill="#A80036" points="339,362.5781,329,366.5781,339,370.5781,335,366.5781" style="stroke: #A80036; stroke-width: 1.0;"/><line style="stroke: #A80036; stroke-width: 1.0; stroke-dasharray: 2.0,2.0;" x1="333" x2="674" y1="366.5781" y2="366.5781"/><text fill="#000000" font-family="sans-serif" font-size="13" lengthAdjust="spacingAndGlyphs" textLength="36" x="345" y="361.5122">Order</text><polygon fill="#A80036" points="45,391.7109,35,395.7109,45,399.7109,41,395.7109" style="stroke: #A80036; stroke-width: 1.0;"/><line style="stroke: #A80036; stroke-width: 1.0;" x1="39" x2="327" y1="395.7109" y2="395.7109"/><text fill="#000000" font-family="sans-serif" font-size="13" lengthAdjust="spacingAndGlyphs" textLength="169" x="51" y="390.645">inputEditOrderDate(Order)</text><polygon fill="#A80036" points="316,420.8438,326,424.8438,316,428.8438,320,424.8438" style="stroke: #A80036; stroke-width: 1.0;"/><line style="stroke: #A80036; stroke-width: 1.0; stroke-dasharray: 2.0,2.0;" x1="34" x2="322" y1="424.8438" y2="424.8438"/><text fill="#000000" font-family="sans-serif" font-size="13" lengthAdjust="spacingAndGlyphs" textLength="64" x="41" y="419.7778">LocalDate</text><polygon fill="#A80036" points="663,449.9766,673,453.9766,663,457.9766,667,453.9766" style="stroke: #A80036; stroke-width: 1.0;"/><line style="stroke: #A80036; stroke-width: 1.0;" x1="328" x2="669" y1="453.9766" y2="453.9766"/><text fill="#000000" font-family="sans-serif" font-size="13" lengthAdjust="spacingAndGlyphs" textLength="192" x="335" y="448.9106">validateOrderDate(LocalDate)</text><polygon fill="#A80036" points="339,479.1094,329,483.1094,339,487.1094,335,483.1094" style="stroke: #A80036; stroke-width: 1.0;"/><line style="stroke: #A80036; stroke-width: 1.0; stroke-dasharray: 2.0,2.0;" x1="333" x2="674" y1="483.1094" y2="483.1094"/><text fill="#000000" font-family="sans-serif" font-size="13" lengthAdjust="spacingAndGlyphs" textLength="64" x="345" y="478.0435">LocalDate</text><polygon fill="#A80036" points="45,508.2422,35,512.2422,45,516.2422,41,512.2422" style="stroke: #A80036; stroke-width: 1.0;"/><line style="stroke: #A80036; stroke-width: 1.0;" x1="39" x2="327" y1="512.2422" y2="512.2422"/><text fill="#000000" font-family="sans-serif" font-size="13" lengthAdjust="spacingAndGlyphs" textLength="203" x="51" y="507.1763">inputEditCustomerName(Order)</text><polygon fill="#A80036" points="316,537.375,326,541.375,316,545.375,320,541.375" style="stroke: #A80036; stroke-width: 1.0;"/><line style="stroke: #A80036; stroke-width: 1.0; stroke-dasharray: 2.0,2.0;" x1="34" x2="322" y1="541.375" y2="541.375"/><text fill="#000000" font-family="sans-serif" font-size="13" lengthAdjust="spacingAndGlyphs" textLength="37" x="41" y="536.3091">String</text><polygon fill="#A80036" points="663,566.5078,673,570.5078,663,574.5078,667,570.5078" style="stroke: #A80036; stroke-width: 1.0;"/><line style="stroke: #A80036; stroke-width: 1.0;" x1="328" x2="669" y1="570.5078" y2="570.5078"/><text fill="#000000" font-family="sans-serif" font-size="13" lengthAdjust="spacingAndGlyphs" textLength="161" x="335" y="565.4419">getValidStatesList(Order)</text><polygon fill="#A80036" points="339,595.6406,329,599.6406,339,603.6406,335,599.6406" style="stroke: #A80036; stroke-width: 1.0;"/><line style="stroke: #A80036; stroke-width: 1.0; stroke-dasharray: 2.0,2.0;" x1="333" x2="674" y1="599.6406" y2="599.6406"/><text fill="#000000" font-family="sans-serif" font-size="13" lengthAdjust="spacingAndGlyphs" textLength="79" x="345" y="594.5747">List&lt;String&gt;</text><polygon fill="#A80036" points="45,624.7734,35,628.7734,45,632.7734,41,628.7734" style="stroke: #A80036; stroke-width: 1.0;"/><line style="stroke: #A80036; stroke-width: 1.0;" x1="39" x2="327" y1="628.7734" y2="628.7734"/><text fill="#000000" font-family="sans-serif" font-size="13" lengthAdjust="spacingAndGlyphs" textLength="179" x="51" y="623.7075">inputEditState(List&lt;String&gt;)</text><polygon fill="#A80036" points="316,653.9063,326,657.9063,316,661.9063,320,657.9063" style="stroke: #A80036; stroke-width: 1.0;"/><line style="stroke: #A80036; stroke-width: 1.0; stroke-dasharray: 2.0,2.0;" x1="34" x2="322" y1="657.9063" y2="657.9063"/><text fill="#000000" font-family="sans-serif" font-size="13" lengthAdjust="spacingAndGlyphs" textLength="37" x="41" y="652.8403">String</text><polygon fill="#A80036" points="663,683.0391,673,687.0391,663,691.0391,667,687.0391" style="stroke: #A80036; stroke-width: 1.0;"/><line style="stroke: #A80036; stroke-width: 1.0;" x1="328" x2="669" y1="687.0391" y2="687.0391"/><text fill="#000000" font-family="sans-serif" font-size="13" lengthAdjust="spacingAndGlyphs" textLength="132" x="335" y="681.9731">validateState(String)</text><polygon fill="#A80036" points="1543,712.1719,1553,716.1719,1543,720.1719,1547,716.1719" style="stroke: #A80036; stroke-width: 1.0;"/><line style="stroke: #A80036; stroke-width: 1.0;" x1="675" x2="1549" y1="716.1719" y2="716.1719"/><text fill="#000000" font-family="sans-serif" font-size="13" lengthAdjust="spacingAndGlyphs" textLength="139" x="682" y="711.106">readStateByID(String)</text><polygon fill="#A80036" points="686,741.3047,676,745.3047,686,749.3047,682,745.3047" style="stroke: #A80036; stroke-width: 1.0;"/><line style="stroke: #A80036; stroke-width: 1.0; stroke-dasharray: 2.0,2.0;" x1="680" x2="1554" y1="745.3047" y2="745.3047"/><text fill="#000000" font-family="sans-serif" font-size="13" lengthAdjust="spacingAndGlyphs" textLength="34" x="692" y="740.2388">State</text><polygon fill="#A80036" points="339,770.4375,329,774.4375,339,778.4375,335,774.4375" style="stroke: #A80036; stroke-width: 1.0;"/><line style="stroke: #A80036; stroke-width: 1.0; stroke-dasharray: 2.0,2.0;" x1="333" x2="674" y1="774.4375" y2="774.4375"/><text fill="#000000" font-family="sans-serif" font-size="13" lengthAdjust="spacingAndGlyphs" textLength="34" x="345" y="769.3716">State</text><polygon fill="#A80036" points="663,799.5703,673,803.5703,663,807.5703,667,803.5703" style="stroke: #A80036; stroke-width: 1.0;"/><line style="stroke: #A80036; stroke-width: 1.0;" x1="328" x2="669" y1="803.5703" y2="803.5703"/><text fill="#000000" font-family="sans-serif" font-size="13" lengthAdjust="spacingAndGlyphs" textLength="140" x="335" y="798.5044">getValidProductsList()</text><polygon fill="#A80036" points="339,828.7031,329,832.7031,339,836.7031,335,832.7031" style="stroke: #A80036; stroke-width: 1.0;"/><line style="stroke: #A80036; stroke-width: 1.0; stroke-dasharray: 2.0,2.0;" x1="333" x2="674" y1="832.7031" y2="832.7031"/><text fill="#000000" font-family="sans-serif" font-size="13" lengthAdjust="spacingAndGlyphs" textLength="79" x="345" y="827.6372">List&lt;String&gt;</text><polygon fill="#A80036" points="45,857.8359,35,861.8359,45,865.8359,41,861.8359" style="stroke: #A80036; stroke-width: 1.0;"/><line style="stroke: #A80036; stroke-width: 1.0;" x1="39" x2="327" y1="861.8359" y2="861.8359"/><text fill="#000000" font-family="sans-serif" font-size="13" lengthAdjust="spacingAndGlyphs" textLength="270" x="51" y="856.77">inputEditProductType(Order, List&lt;String&gt;)</text><polygon fill="#A80036" points="316,886.9688,326,890.9688,316,894.9688,320,890.9688" style="stroke: #A80036; stroke-width: 1.0;"/><line style="stroke: #A80036; stroke-width: 1.0; stroke-dasharray: 2.0,2.0;" x1="34" x2="322" y1="890.9688" y2="890.9688"/><text fill="#000000" font-family="sans-serif" font-size="13" lengthAdjust="spacingAndGlyphs" textLength="37" x="41" y="885.9028">String</text><polygon fill="#A80036" points="663,916.1016,673,920.1016,663,924.1016,667,920.1016" style="stroke: #A80036; stroke-width: 1.0;"/><line style="stroke: #A80036; stroke-width: 1.0;" x1="328" x2="669" y1="920.1016" y2="920.1016"/><text fill="#000000" font-family="sans-serif" font-size="13" lengthAdjust="spacingAndGlyphs" textLength="179" x="335" y="915.0356">validateProductType(String)</text><polygon fill="#A80036" points="1647,945.2344,1657,949.2344,1647,953.2344,1651,949.2344" style="stroke: #A80036; stroke-width: 1.0;"/><line style="stroke: #A80036; stroke-width: 1.0;" x1="675" x2="1653" y1="949.2344" y2="949.2344"/><text fill="#000000" font-family="sans-serif" font-size="13" lengthAdjust="spacingAndGlyphs" textLength="154" x="682" y="944.1685">readProductByID(String)</text><polygon fill="#A80036" points="686,974.3672,676,978.3672,686,982.3672,682,978.3672" style="stroke: #A80036; stroke-width: 1.0;"/><line style="stroke: #A80036; stroke-width: 1.0; stroke-dasharray: 2.0,2.0;" x1="680" x2="1658" y1="978.3672" y2="978.3672"/><text fill="#000000" font-family="sans-serif" font-size="13" lengthAdjust="spacingAndGlyphs" textLength="49" x="692" y="973.3013">Product</text><polygon fill="#A80036" points="339,1003.5,329,1007.5,339,1011.5,335,1007.5" style="stroke: #A80036; stroke-width: 1.0;"/><line style="stroke: #A80036; stroke-width: 1.0; stroke-dasharray: 2.0,2.0;" x1="333" x2="674" y1="1007.5" y2="1007.5"/><text fill="#000000" font-family="sans-serif" font-size="13" lengthAdjust="spacingAndGlyphs" textLength="49" x="345" y="1002.4341">Product</text><polygon fill="#A80036" points="45,1032.6328,35,1036.6328,45,1040.6328,41,1036.6328" style="stroke: #A80036; stroke-width: 1.0;"/><line style="stroke: #A80036; stroke-width: 1.0;" x1="39" x2="327" y1="1036.6328" y2="1036.6328"/><text fill="#000000" font-family="sans-serif" font-size="13" lengthAdjust="spacingAndGlyphs" textLength="132" x="51" y="1031.5669">inputEditArea(Order)</text><polygon fill="#A80036" points="316,1061.7656,326,1065.7656,316,1069.7656,320,1065.7656" style="stroke: #A80036; stroke-width: 1.0;"/><line style="stroke: #A80036; stroke-width: 1.0; stroke-dasharray: 2.0,2.0;" x1="34" x2="322" y1="1065.7656" y2="1065.7656"/><text fill="#000000" font-family="sans-serif" font-size="13" lengthAdjust="spacingAndGlyphs" textLength="71" x="41" y="1060.6997">BigDecimal</text><line style="stroke: #A80036; stroke-width: 1.0; stroke-dasharray: 2.0,2.0;" x1="328" x2="370" y1="1094.8984" y2="1094.8984"/><line style="stroke: #A80036; stroke-width: 1.0; stroke-dasharray: 2.0,2.0;" x1="370" x2="370" y1="1094.8984" y2="1107.8984"/><line style="stroke: #A80036; stroke-width: 1.0; stroke-dasharray: 2.0,2.0;" x1="329" x2="370" y1="1107.8984" y2="1107.8984"/><polygon fill="#A80036" points="339,1103.8984,329,1107.8984,339,1111.8984,335,1107.8984" style="stroke: #A80036; stroke-width: 1.0;"/><text fill="#000000" font-family="sans-serif" font-size="13" lengthAdjust="spacingAndGlyphs" textLength="333" x="335" y="1089.8325">Order(LocalDate, String, State, Product, BigDecimal)</text><polygon fill="#A80036" points="45,1133.0313,35,1137.0313,45,1141.0313,41,1137.0313" style="stroke: #A80036; stroke-width: 1.0;"/><line style="stroke: #A80036; stroke-width: 1.0;" x1="39" x2="327" y1="1137.0313" y2="1137.0313"/><text fill="#000000" font-family="sans-serif" font-size="13" lengthAdjust="spacingAndGlyphs" textLength="119" x="51" y="1131.9653">confirmOrderEdit()</text><polygon fill="#A80036" points="316,1162.1641,326,1166.1641,316,1170.1641,320,1166.1641" style="stroke: #A80036; stroke-width: 1.0;"/><line style="stroke: #A80036; stroke-width: 1.0; stroke-dasharray: 2.0,2.0;" x1="34" x2="322" y1="1166.1641" y2="1166.1641"/><text fill="#000000" font-family="sans-serif" font-size="13" lengthAdjust="spacingAndGlyphs" textLength="51" x="41" y="1161.0981">boolean</text><polygon fill="#A80036" points="663,1191.2969,673,1195.2969,663,1199.2969,667,1195.2969" style="stroke: #A80036; stroke-width: 1.0;"/><line style="stroke: #A80036; stroke-width: 1.0;" x1="328" x2="669" y1="1195.2969" y2="1195.2969"/><text fill="#000000" font-family="sans-serif" font-size="13" lengthAdjust="spacingAndGlyphs" textLength="150" x="335" y="1190.231">editOrder(Order, Order)</text><line style="stroke: #A80036; stroke-width: 1.0; stroke-dasharray: 2.0,2.0;" x1="675" x2="717" y1="1224.4297" y2="1224.4297"/><line style="stroke: #A80036; stroke-width: 1.0; stroke-dasharray: 2.0,2.0;" x1="717" x2="717" y1="1224.4297" y2="1237.4297"/><line style="stroke: #A80036; stroke-width: 1.0; stroke-dasharray: 2.0,2.0;" x1="676" x2="717" y1="1237.4297" y2="1237.4297"/><polygon fill="#A80036" points="686,1233.4297,676,1237.4297,686,1241.4297,682,1237.4297" style="stroke: #A80036; stroke-width: 1.0;"/><text fill="#000000" font-family="sans-serif" font-size="13" lengthAdjust="spacingAndGlyphs" textLength="114" x="682" y="1219.3638">calcMaterialCost()</text><line style="stroke: #A80036; stroke-width: 1.0; stroke-dasharray: 2.0,2.0;" x1="675" x2="717" y1="1266.5625" y2="1266.5625"/><line style="stroke: #A80036; stroke-width: 1.0; stroke-dasharray: 2.0,2.0;" x1="717" x2="717" y1="1266.5625" y2="1279.5625"/><line style="stroke: #A80036; stroke-width: 1.0; stroke-dasharray: 2.0,2.0;" x1="676" x2="717" y1="1279.5625" y2="1279.5625"/><polygon fill="#A80036" points="686,1275.5625,676,1279.5625,686,1283.5625,682,1279.5625" style="stroke: #A80036; stroke-width: 1.0;"/><text fill="#000000" font-family="sans-serif" font-size="13" lengthAdjust="spacingAndGlyphs" textLength="100" x="682" y="1261.4966">calcLaborCost()</text><line style="stroke: #A80036; stroke-width: 1.0; stroke-dasharray: 2.0,2.0;" x1="675" x2="717" y1="1308.6953" y2="1308.6953"/><line style="stroke: #A80036; stroke-width: 1.0; stroke-dasharray: 2.0,2.0;" x1="717" x2="717" y1="1308.6953" y2="1321.6953"/><line style="stroke: #A80036; stroke-width: 1.0; stroke-dasharray: 2.0,2.0;" x1="676" x2="717" y1="1321.6953" y2="1321.6953"/><polygon fill="#A80036" points="686,1317.6953,676,1321.6953,686,1325.6953,682,1321.6953" style="stroke: #A80036; stroke-width: 1.0;"/><text fill="#000000" font-family="sans-serif" font-size="13" lengthAdjust="spacingAndGlyphs" textLength="59" x="682" y="1303.6294">calcTax()</text><line style="stroke: #A80036; stroke-width: 1.0; stroke-dasharray: 2.0,2.0;" x1="675" x2="717" y1="1350.8281" y2="1350.8281"/><line style="stroke: #A80036; stroke-width: 1.0; stroke-dasharray: 2.0,2.0;" x1="717" x2="717" y1="1350.8281" y2="1363.8281"/><line style="stroke: #A80036; stroke-width: 1.0; stroke-dasharray: 2.0,2.0;" x1="676" x2="717" y1="1363.8281" y2="1363.8281"/><polygon fill="#A80036" points="686,1359.8281,676,1363.8281,686,1367.8281,682,1363.8281" style="stroke: #A80036; stroke-width: 1.0;"/><text fill="#000000" font-family="sans-serif" font-size="13" lengthAdjust="spacingAndGlyphs" textLength="67" x="682" y="1345.7622">calcTotal()</text><line style="stroke: #A80036; stroke-width: 1.0; stroke-dasharray: 2.0,2.0;" x1="675" x2="717" y1="1392.9609" y2="1392.9609"/><line style="stroke: #A80036; stroke-width: 1.0; stroke-dasharray: 2.0,2.0;" x1="717" x2="717" y1="1392.9609" y2="1405.9609"/><line style="stroke: #A80036; stroke-width: 1.0; stroke-dasharray: 2.0,2.0;" x1="676" x2="717" y1="1405.9609" y2="1405.9609"/><polygon fill="#A80036" points="686,1401.9609,676,1405.9609,686,1409.9609,682,1405.9609" style="stroke: #A80036; stroke-width: 1.0;"/><text fill="#000000" font-family="sans-serif" font-size="13" lengthAdjust="spacingAndGlyphs" textLength="166" x="682" y="1387.895">getHighestOrderNumber()</text><line style="stroke: #A80036; stroke-width: 1.0; stroke-dasharray: 2.0,2.0;" x1="675" x2="717" y1="1435.0938" y2="1435.0938"/><line style="stroke: #A80036; stroke-width: 1.0; stroke-dasharray: 2.0,2.0;" x1="717" x2="717" y1="1435.0938" y2="1448.0938"/><line style="stroke: #A80036; stroke-width: 1.0; stroke-dasharray: 2.0,2.0;" x1="676" x2="717" y1="1448.0938" y2="1448.0938"/><polygon fill="#A80036" points="686,1444.0938,676,1448.0938,686,1452.0938,682,1448.0938" style="stroke: #A80036; stroke-width: 1.0;"/><text fill="#000000" font-family="sans-serif" font-size="13" lengthAdjust="spacingAndGlyphs" textLength="752" x="682" y="1430.0278">Order(LocalDate, int, String, State, Product, BigDecimal, BigDecimal, BigDecimal, BigDecimal, BigDecimal, BigDecimal)</text><line style="stroke: #A80036; stroke-width: 1.0; stroke-dasharray: 2.0,2.0;" x1="1441" x2="1483" y1="1477.2266" y2="1477.2266"/><line style="stroke: #A80036; stroke-width: 1.0; stroke-dasharray: 2.0,2.0;" x1="1483" x2="1483" y1="1477.2266" y2="1490.2266"/><line style="stroke: #A80036; stroke-width: 1.0; stroke-dasharray: 2.0,2.0;" x1="1442" x2="1483" y1="1490.2266" y2="1490.2266"/><polygon fill="#A80036" points="1452,1486.2266,1442,1490.2266,1452,1494.2266,1448,1490.2266" style="stroke: #A80036; stroke-width: 1.0;"/><text fill="#000000" font-family="sans-serif" font-size="13" lengthAdjust="spacingAndGlyphs" textLength="95" x="1448" y="1472.1606">loadAllOrders()</text><polygon fill="#A80036" points="1429,1515.3594,1439,1519.3594,1429,1523.3594,1433,1519.3594" style="stroke: #A80036; stroke-width: 1.0;"/><line style="stroke: #A80036; stroke-width: 1.0;" x1="675" x2="1435" y1="1519.3594" y2="1519.3594"/><text fill="#000000" font-family="sans-serif" font-size="13" lengthAdjust="spacingAndGlyphs" textLength="150" x="682" y="1514.2935">editOrder(Order, Order)</text><polygon fill="#A80036" points="686,1544.4922,676,1548.4922,686,1552.4922,682,1548.4922" style="stroke: #A80036; stroke-width: 1.0;"/><line style="stroke: #A80036; stroke-width: 1.0; stroke-dasharray: 2.0,2.0;" x1="680" x2="1440" y1="1548.4922" y2="1548.4922"/><text fill="#000000" font-family="sans-serif" font-size="13" lengthAdjust="spacingAndGlyphs" textLength="36" x="692" y="1543.4263">Order</text><line style="stroke: #A80036; stroke-width: 1.0; stroke-dasharray: 2.0,2.0;" x1="1441" x2="1483" y1="1577.625" y2="1577.625"/><line style="stroke: #A80036; stroke-width: 1.0; stroke-dasharray: 2.0,2.0;" x1="1483" x2="1483" y1="1577.625" y2="1590.625"/><line style="stroke: #A80036; stroke-width: 1.0; stroke-dasharray: 2.0,2.0;" x1="1442" x2="1483" y1="1590.625" y2="1590.625"/><polygon fill="#A80036" points="1452,1586.625,1442,1590.625,1452,1594.625,1448,1590.625" style="stroke: #A80036; stroke-width: 1.0;"/><text fill="#000000" font-family="sans-serif" font-size="13" lengthAdjust="spacingAndGlyphs" textLength="100" x="1448" y="1572.5591">writeAllOrders()</text><polygon fill="#A80036" points="339,1615.7578,329,1619.7578,339,1623.7578,335,1619.7578" style="stroke: #A80036; stroke-width: 1.0;"/><line style="stroke: #A80036; stroke-width: 1.0; stroke-dasharray: 2.0,2.0;" x1="333" x2="674" y1="1619.7578" y2="1619.7578"/><text fill="#000000" font-family="sans-serif" font-size="13" lengthAdjust="spacingAndGlyphs" textLength="36" x="345" y="1614.6919">Order</text><polygon fill="#A80036" points="45,1644.8906,35,1648.8906,45,1652.8906,41,1648.8906" style="stroke: #A80036; stroke-width: 1.0;"/><line style="stroke: #A80036; stroke-width: 1.0;" x1="39" x2="327" y1="1648.8906" y2="1648.8906"/><text fill="#000000" font-family="sans-serif" font-size="13" lengthAdjust="spacingAndGlyphs" textLength="151" x="51" y="1643.8247">displayOrderInfo(Order)</text><polygon fill="#A80036" points="316,1674.0234,326,1678.0234,316,1682.0234,320,1678.0234" style="stroke: #A80036; stroke-width: 1.0;"/><line style="stroke: #A80036; stroke-width: 1.0; stroke-dasharray: 2.0,2.0;" x1="34" x2="322" y1="1678.0234" y2="1678.0234"/><text fill="#000000" font-family="sans-serif" font-size="13" lengthAdjust="spacingAndGlyphs" textLength="27" x="41" y="1672.9575">void</text><polygon fill="#A80036" points="45,1703.1563,35,1707.1563,45,1711.1563,41,1707.1563" style="stroke: #A80036; stroke-width: 1.0;"/><line style="stroke: #A80036; stroke-width: 1.0;" x1="39" x2="327" y1="1707.1563" y2="1707.1563"/><text fill="#000000" font-family="sans-serif" font-size="13" lengthAdjust="spacingAndGlyphs" textLength="212" x="51" y="1702.0903">displayEditOrderSuccessBanner()</text><polygon fill="#A80036" points="316,1732.2891,326,1736.2891,316,1740.2891,320,1736.2891" style="stroke: #A80036; stroke-width: 1.0;"/><line style="stroke: #A80036; stroke-width: 1.0; stroke-dasharray: 2.0,2.0;" x1="34" x2="322" y1="1736.2891" y2="1736.2891"/><text fill="#000000" font-family="sans-serif" font-size="13" lengthAdjust="spacingAndGlyphs" textLength="27" x="41" y="1731.2231">void</text><!--MD5=[4837080fe02338ed2978f71a4bf9477f]
@startuml
title TSG Flooring Corp - editOrder() Sequence

View <- - Controller : displayEditOrderBanner()
View - -> Controller : void
'all \n user entries must  be copied over

'need to get order first
View <- Controller : getSingleOrderDate()
View - -> Controller : LocalDate
View <- Controller : getOrderNum()
View - -> Controller : int

Controller -> Service : getOrder(LocalDate, int)
Service -> OrderDao : getOrder(LocalDate, int)
OrderDao - -> Service : Order
Service - -> Controller : Order

View <- Controller : inputEditOrderDate(Order)
View - -> Controller : LocalDate
Controller -> Service : validateOrderDate(LocalDate)
Service - -> Controller : LocalDate

View <- Controller : inputEditCustomerName(Order)
View - -> Controller : String

Controller -> Service : getValidStatesList(Order)
Service - -> Controller : List<String>
View <- Controller : inputEditState(List<String>)
View - -> Controller : String
Controller -> Service : validateState(String)
Service -> StateDao : readStateByID(String)
StateDao - -> Service : State
Service - -> Controller : State

Controller -> Service : getValidProductsList()
Service - -> Controller : List<String>
View <- Controller : inputEditProductType(Order, List<String>)
View - -> Controller : String
Controller -> Service : validateProductType(String)
Service -> ProductDao : readProductByID(String)
ProductDao - -> Service : Product
Service - -> Controller : Product

View <- Controller : inputEditArea(Order)
View - -> Controller : BigDecimal
Controller - -> Controller : Order(LocalDate, String, State, Product, BigDecimal)

Controller -> View : confirmOrderEdit()
View - -> Controller : boolean

Controller -> Service: editOrder(Order, Order)
Service - -> Service : calcMaterialCost()
Service - -> Service : calcLaborCost()
Service - -> Service : calcTax()
Service - -> Service : calcTotal()
Service - -> Service : getHighestOrderNumber()
Service - -> Service : Order(LocalDate, int, String, State, Product, BigDecimal, BigDecimal, BigDecimal, BigDecimal, BigDecimal, BigDecimal)
OrderDao - -> OrderDao : loadAllOrders()
Service -> OrderDao : editOrder(Order, Order)
OrderDao - -> Service : Order
OrderDao - -> OrderDao : writeAllOrders()
Service - -> Controller : Order

'OrderDao -[#blue]-> AuditDao : writeAuditEntry()

Controller -> View : displayOrderInfo(Order)
View - -> Controller : void

Controller -> View : displayEditOrderSuccessBanner()
View - -> Controller : void
@enduml

@startuml
title TSG Flooring Corp - editOrder() Sequence

View <- - Controller : displayEditOrderBanner()
View - -> Controller : void

View <- Controller : getSingleOrderDate()
View - -> Controller : LocalDate
View <- Controller : getOrderNum()
View - -> Controller : int

Controller -> Service : getOrder(LocalDate, int)
Service -> OrderDao : getOrder(LocalDate, int)
OrderDao - -> Service : Order
Service - -> Controller : Order

View <- Controller : inputEditOrderDate(Order)
View - -> Controller : LocalDate
Controller -> Service : validateOrderDate(LocalDate)
Service - -> Controller : LocalDate

View <- Controller : inputEditCustomerName(Order)
View - -> Controller : String

Controller -> Service : getValidStatesList(Order)
Service - -> Controller : List<String>
View <- Controller : inputEditState(List<String>)
View - -> Controller : String
Controller -> Service : validateState(String)
Service -> StateDao : readStateByID(String)
StateDao - -> Service : State
Service - -> Controller : State

Controller -> Service : getValidProductsList()
Service - -> Controller : List<String>
View <- Controller : inputEditProductType(Order, List<String>)
View - -> Controller : String
Controller -> Service : validateProductType(String)
Service -> ProductDao : readProductByID(String)
ProductDao - -> Service : Product
Service - -> Controller : Product

View <- Controller : inputEditArea(Order)
View - -> Controller : BigDecimal
Controller - -> Controller : Order(LocalDate, String, State, Product, BigDecimal)

Controller -> View : confirmOrderEdit()
View - -> Controller : boolean

Controller -> Service: editOrder(Order, Order)
Service - -> Service : calcMaterialCost()
Service - -> Service : calcLaborCost()
Service - -> Service : calcTax()
Service - -> Service : calcTotal()
Service - -> Service : getHighestOrderNumber()
Service - -> Service : Order(LocalDate, int, String, State, Product, BigDecimal, BigDecimal, BigDecimal, BigDecimal, BigDecimal, BigDecimal)
OrderDao - -> OrderDao : loadAllOrders()
Service -> OrderDao : editOrder(Order, Order)
OrderDao - -> Service : Order
OrderDao - -> OrderDao : writeAllOrders()
Service - -> Controller : Order


Controller -> View : displayOrderInfo(Order)
View - -> Controller : void

Controller -> View : displayEditOrderSuccessBanner()
View - -> Controller : void
@enduml

PlantUML version 1.2020.16beta1(Unknown compile time)
(GPL source distribution)
Java Runtime: Java(TM) SE Runtime Environment
JVM: Java HotSpot(TM) 64-Bit Server VM
Default Encoding: UTF-8
Language: en
Country: US
--></g></svg>